# xmcd CD database file
#
# Track frame offsets:
#	150
#	25079
#	53777
#	80274
#	92737
#	116618
#	136866
#	158818
#	188187
#	210035
#
# Disc length: 3041 seconds
#
# Revision: 0
# Processed by: cddbd v1.5.2PL0 Copyright (c) Steve Scherf et al.
# Submitted via: CDex 1.51
#
DISCID=720bdf0a
DTITLE=Michal Urbaniak - Fusion III
DYEAR=1900
DGENRE=Jazz
TTITLE0=Chinatown Part I
TTITLE1=Kuyaviak Goes Funky
TTITLE2=Roksana
TTITLE3=Crazy Kid feat Urszula Dudziak
TTITLE4=Prehistoric Bird
TTITLE5=Bloody Kishka feat Larry Coryell
TTITLE6=Cameo
TTITLE7=Stretch feat Bernard Kafka
TTITLE8=Metroliner
TTITLE9=Chinatown Part II
EXTD=
EXTT0=
EXTT1=
EXTT2=
EXTT3=
EXTT4=
EXTT5=
EXTT6=
EXTT7=
EXTT8=
EXTT9=
PLAYORDER=
